<?xml version="1.0" encoding="utf-8"?>
<!-- Generator: Adobe Illustrator 17.1.0, SVG Export Plug-In . SVG Version: 6.00 Build 0)  -->
<!DOCTYPE svg PUBLIC "-//W3C//DTD SVG 1.1//EN" "http://www.w3.org/Graphics/SVG/1.1/DTD/svg11.dtd">
<svg version="1.1" id="Layer_1" xmlns="http://www.w3.org/2000/svg" xmlns:xlink="http://www.w3.org/1999/xlink" x="0px" y="0px"
	 viewBox="0 0 396.2 78.9" enable-background="new 0 0 396.2 78.9" xml:space="preserve">
<g>
	<polygon fill="#404041" points="191.6,57.9 187.5,57.9 187.5,69.3 185.3,69.3 185.3,57.9 181.3,57.9 181.3,56.2 191.6,56.2 	"/>
	<path fill="#404041" d="M199.1,63.8v5.4h-2.2V56.2h4.5c1.5,0,2.6,0.3,3.4,1c0.8,0.7,1.2,1.6,1.2,2.8c0,0.7-0.2,1.3-0.5,1.7
		c-0.3,0.5-0.9,0.9-1.5,1.2c0.7,0.2,1.3,0.6,1.6,1.1c0.3,0.5,0.5,1.2,0.5,2v1.1c0,0.4,0,0.8,0.1,1.1c0.1,0.4,0.3,0.6,0.5,0.8v0.2
		h-2.2c-0.2-0.2-0.4-0.5-0.5-0.9c-0.1-0.4-0.1-0.8-0.1-1.3V66c0-0.7-0.2-1.2-0.6-1.6c-0.4-0.4-0.9-0.6-1.6-0.6H199.1z M199.1,62.1
		h2.2c0.9,0,1.5-0.2,1.9-0.5c0.4-0.3,0.6-0.8,0.6-1.5c0-0.7-0.2-1.2-0.6-1.5c-0.4-0.4-1-0.6-1.8-0.6h-2.3V62.1z"/>
	<path fill="#404041" d="M219.1,66.2h-4.6l-1,3.1h-2.3l4.6-13.1h2.1l4.5,13.1h-2.3L219.1,66.2z M215.1,64.4h3.4l-1.7-5.2h-0.1
		L215.1,64.4z"/>
	<polygon fill="#404041" points="237.9,69.3 235.7,69.3 229.9,59.8 229.8,59.9 229.8,69.3 227.7,69.3 227.7,56.2 229.8,56.2 
		235.6,65.6 235.7,65.6 235.7,56.2 237.9,56.2 	"/>
	<path fill="#404041" d="M251.2,65.9c0-0.5-0.2-1-0.6-1.3c-0.4-0.3-1.1-0.7-2.1-0.9c-1.4-0.4-2.5-0.9-3.3-1.5
		c-0.8-0.6-1.1-1.5-1.1-2.5c0-1.1,0.4-1.9,1.3-2.6c0.8-0.7,1.9-1,3.2-1c1.4,0,2.5,0.4,3.4,1.1c0.8,0.8,1.3,1.7,1.2,2.8l0,0.1h-2.1
		c0-0.7-0.2-1.2-0.7-1.6c-0.5-0.4-1.1-0.6-1.8-0.6c-0.7,0-1.3,0.2-1.7,0.5c-0.4,0.3-0.6,0.8-0.6,1.3c0,0.5,0.2,0.9,0.7,1.2
		c0.4,0.3,1.2,0.6,2.2,0.9c1.4,0.4,2.4,0.9,3.1,1.6c0.7,0.7,1.1,1.5,1.1,2.5c0,1.1-0.4,2-1.3,2.6c-0.8,0.6-2,1-3.4,1
		c-1.3,0-2.5-0.4-3.5-1.1c-1-0.7-1.5-1.7-1.4-3l0-0.1h2.1c0,0.8,0.3,1.4,0.8,1.8c0.5,0.4,1.2,0.6,2,0.6c0.8,0,1.4-0.2,1.8-0.5
		C251,66.9,251.2,66.5,251.2,65.9"/>
	<polygon fill="#404041" points="261.5,67.5 267.6,67.5 267.6,69.3 259.3,69.3 259.3,56.2 261.5,56.2 	"/>
	<path fill="#404041" d="M280.2,66.2h-4.6l-1,3.1h-2.3l4.6-13.1h2.1l4.5,13.1h-2.3L280.2,66.2z M276.1,64.4h3.4l-1.7-5.2h-0.1
		L276.1,64.4z"/>
	<polygon fill="#404041" points="297,57.9 293,57.9 293,69.3 290.8,69.3 290.8,57.9 286.8,57.9 286.8,56.2 297,56.2 	"/>
	<rect x="302.6" y="56.2" fill="#404041" width="2.2" height="13.1"/>
	<path fill="#404041" d="M321.7,63.9c0,1.6-0.5,2.9-1.5,4c-1,1.1-2.3,1.6-3.9,1.6c-1.6,0-2.8-0.5-3.8-1.6c-1-1-1.5-2.4-1.5-4v-2.4
		c0-1.6,0.5-2.9,1.5-4c1-1.1,2.3-1.6,3.8-1.6c1.6,0,2.9,0.5,3.9,1.6c1,1.1,1.5,2.4,1.5,4V63.9z M319.5,61.5c0-1.1-0.3-2-0.9-2.7
		c-0.6-0.7-1.4-1.1-2.4-1.1c-1,0-1.7,0.3-2.3,1.1c-0.6,0.7-0.8,1.6-0.8,2.7v2.4c0,1.1,0.3,2,0.8,2.7c0.6,0.7,1.3,1.1,2.3,1.1
		c1,0,1.8-0.4,2.4-1.1c0.6-0.7,0.9-1.6,0.9-2.7V61.5z"/>
	<polygon fill="#404041" points="337.9,69.3 335.7,69.3 329.9,59.8 329.8,59.9 329.8,69.3 327.6,69.3 327.6,56.2 329.8,56.2 
		335.6,65.6 335.7,65.6 335.7,56.2 337.9,56.2 	"/>
	<path fill="#404041" d="M351.2,65.9c0-0.5-0.2-1-0.6-1.3c-0.4-0.3-1.1-0.7-2.1-0.9c-1.4-0.4-2.5-0.9-3.3-1.5
		c-0.8-0.6-1.1-1.5-1.1-2.5c0-1.1,0.4-1.9,1.3-2.6c0.8-0.7,1.9-1,3.2-1c1.4,0,2.5,0.4,3.4,1.1c0.8,0.8,1.3,1.7,1.2,2.8l0,0.1h-2.1
		c0-0.7-0.2-1.2-0.7-1.6c-0.5-0.4-1.1-0.6-1.8-0.6c-0.7,0-1.3,0.2-1.7,0.5c-0.4,0.3-0.6,0.8-0.6,1.3c0,0.5,0.2,0.9,0.7,1.2
		c0.4,0.3,1.2,0.6,2.2,0.9c1.4,0.4,2.4,0.9,3.1,1.6c0.7,0.7,1.1,1.5,1.1,2.5c0,1.1-0.4,2-1.3,2.6c-0.8,0.6-2,1-3.4,1
		c-1.3,0-2.5-0.4-3.5-1.1c-1-0.7-1.5-1.7-1.4-3l0-0.1h2.1c0,0.8,0.3,1.4,0.8,1.8c0.5,0.4,1.2,0.6,2,0.6c0.8,0,1.4-0.2,1.8-0.5
		C351,66.9,351.2,66.5,351.2,65.9"/>
	<g>
		<defs>
			<path id="SVGID_1_" d="M132.6,0c-1.5,0-3.3,1.1-4.1,2.4l-23.8,43.1L97.5,2.7C97.2,1.2,95.8,0,94.3,0H80.8c-1.5,0-3.4,1-4.2,2.3
				L50.2,45.5L45.5,2.7C45.4,1.2,44,0,42.5,0H10.2C9,0,8.4,0.9,8.9,2.1l0.9,2.2c0.5,1.2,1.9,2.1,3.2,2.1h14.1c1.3,0,2.7,0.9,3.2,2.1
				l0.7,1.6c0.5,1.2-0.1,2.1-1.4,2.1H1.9c-1.3,0-1.9,0.9-1.4,2.1l0.9,2.2c0.5,1.2,1.9,2.1,3.2,2.1h16.5c1.3,0,2.7,0.9,3.2,2.1
				l0.7,1.7c0.5,1.2-0.1,2.1-1.4,2.1h-4.5c-1.3,0-1.9,0.9-1.4,2.1l0.9,2.2c0.5,1.2,1.9,2.1,3.2,2.1h6.4c1.3,0,2.7,0.9,3.2,2.1
				l0.7,1.7c0.5,1.2-0.1,2.1-1.4,2.1H19.4c-1.3,0-1.9,0.9-1.4,2.1L19,41c0.5,1.2,1.9,2.1,3.2,2.1h4.1c1.3,0,2.4,1,2.5,2.3l3.3,30.8
				c0.2,1.5,1.5,2.7,3,2.7h13.4c1.5,0,3.4-1,4.2-2.3L80.7,31l7.7,45.1c0.3,1.5,1.7,2.7,3.2,2.7H105c1.5,0,3.3-1.1,4.1-2.4l40.9-74.1
				c0.7-1.3,0.1-2.4-1.4-2.4H132.6z"/>
		</defs>
		<clipPath id="SVGID_2_">
			<use xlink:href="#SVGID_1_"  overflow="visible"/>
		</clipPath>
		
			<linearGradient id="SVGID_3_" gradientUnits="userSpaceOnUse" x1="-80.3348" y1="285.3969" x2="-78.4357" y2="285.3969" gradientTransform="matrix(78.9098 0 0 -78.9098 6339.5249 22560.0371)">
			<stop  offset="0" style="stop-color:#F6921E"/>
			<stop  offset="0.457" style="stop-color:#EE4036"/>
			<stop  offset="0.5509" style="stop-color:#E63E3D"/>
			<stop  offset="0.6934" style="stop-color:#D13851"/>
			<stop  offset="0.8658" style="stop-color:#AF2F71"/>
			<stop  offset="1" style="stop-color:#90278E"/>
		</linearGradient>
		<rect x="0" y="0" clip-path="url(#SVGID_2_)" fill="url(#SVGID_3_)" width="150.6" height="78.9"/>
	</g>
	<polygon fill="#404041" points="164.8,21.5 165.3,17.8 176.8,17.8 176.3,21.5 174.5,23.3 176,31.6 176.3,28.9 178.2,19.3 
		183.7,18.8 186.6,32.2 186.8,28.4 187.5,23.3 186,21.5 186.5,17.8 195.8,17.8 195.2,21.5 192.7,23.3 188.5,39.9 182.4,40.7 
		179.9,29.9 177.6,39.9 172,40.6 167.5,23.3 	"/>
	<path fill="#404041" d="M197.8,28.7c0-1.7,0.4-3.4,1.1-4.8c0.7-1.5,1.7-2.7,2.8-3.7c1.1-1,2.4-1.7,3.8-2.2c1.4-0.5,2.7-0.8,4.1-0.8
		c7.3,0,11,3.6,11,10.9c0,3.7-1,6.7-3.1,8.9c-2.1,2.2-4.9,3.3-8.3,3.3c-2.1,0-3.9-0.3-5.4-1c-1.5-0.6-2.7-1.5-3.5-2.7
		c-0.8-1.1-1.4-2.4-1.8-3.7C198,31.7,197.8,30.2,197.8,28.7 M205.7,27.2c0,2.9,0.3,5.1,0.9,6.4c0.6,1.4,1.7,2.1,3.1,2.1
		c1,0,1.7-0.3,2.1-1c0.4-0.6,0.6-1.8,0.6-3.5c0-1,0-1.9-0.1-2.6c0-0.7-0.1-1.5-0.3-2.4c-0.2-0.9-0.4-1.6-0.6-2.1
		c-0.3-0.6-0.6-1-1.1-1.4c-0.5-0.4-1.1-0.6-1.8-0.6c-1.1,0-1.8,0.4-2.3,1.3C206,24.2,205.7,25.5,205.7,27.2"/>
	<path fill="#404041" d="M222.6,39.6l0.5-3.8l3.5-1.6v-9.8l-3.3-1.8l0.6-4l8.6-0.7l0.9,0.9l-0.4,3.3l0.5,0.2c1.1-3.2,3-4.8,5.8-4.8
		c1.2,0,2.2,0.4,2.9,1.1c0.7,0.7,1.1,1.6,1.1,2.7c0,1.9-0.8,3.7-2.5,5.3c-1.3-0.6-2.4-0.9-3.4-0.9c-0.4,0-0.7,0.1-1,0.2
		c-0.3,0.1-0.6,0.2-0.8,0.4l-0.6,0.6l-0.4,0.6l-0.2,0.3l-0.5,0.9v5l5.7,1.5l-0.3,4.4H222.6z"/>
	<path fill="#404041" d="M245.4,31c0-1.6,0.2-3.1,0.7-4.6c0.5-1.5,1.2-2.9,2.1-4.1c0.9-1.3,2.1-2.3,3.6-3c1.5-0.8,3.2-1.1,5.1-1.1
		c0.4,0,0.9,0.1,1.5,0.2c0.6,0.1,1,0.3,1.3,0.5h0.1l-0.2-1.7v-0.7l-4.1-2.4L256,10l9.2-0.6l1.4,1.3v20.1c0,1.2,0.2,2,0.6,2.5
		c0.4,0.5,1.3,0.9,2.6,1.3l0.7,0.2l-0.6,4c-1,0.5-1.9,0.8-2.7,1c-0.8,0.2-1.8,0.3-2.8,0.3c-2.4,0-4-1-4.8-3.1l-0.1-0.3l-0.3-0.1
		c-0.8,1.1-1.6,1.9-2.5,2.5c-0.9,0.6-2.1,0.9-3.6,0.9c-1.2,0-2.4-0.2-3.4-0.7c-1-0.5-1.8-1.2-2.4-2c-0.6-0.9-1.1-1.8-1.4-2.9
		C245.6,33.4,245.4,32.2,245.4,31 M253.4,28.6c0,1.4,0.3,2.6,0.9,3.6c0.6,1,1.4,1.5,2.5,1.5c0.8,0,1.7-0.3,2.7-0.9v-7.6
		c-1.2-1.4-2.3-2.1-3.2-2.1c-0.8,0-1.5,0.6-2,1.7C253.7,26,253.4,27.2,253.4,28.6"/>
	<path fill="#404041" d="M272.8,35.7c0-1.1,0.4-2,1.3-2.7c0.9-0.7,2.1-1,3.7-1.2c0.4,1.6,0.9,2.8,1.6,3.6c0.7,0.8,1.4,1.2,2.3,1.2
		c1.7,0,2.5-0.5,2.5-1.6c0-0.3-0.2-0.7-0.6-1c-0.4-0.3-0.9-0.7-1.5-1c-0.6-0.3-1.3-0.6-2.1-1c-0.8-0.4-1.5-0.8-2.3-1.2
		c-0.8-0.5-1.5-1-2.1-1.5c-0.6-0.6-1.1-1.2-1.5-2c-0.4-0.8-0.6-1.7-0.6-2.6c0-0.6,0.1-1.2,0.3-1.8c0.2-0.6,0.5-1.3,1-2
		c0.5-0.7,1-1.3,1.7-1.8c0.7-0.5,1.6-1,2.7-1.3c1.1-0.3,2.4-0.5,3.7-0.5c2.4,0,4.3,0.4,5.7,1.2c1.4,0.8,2.1,1.8,2.1,3.2
		c0,0.6-0.1,1.1-0.4,1.6c-0.3,0.5-0.7,0.8-1.2,1.1c-0.5,0.3-1,0.5-1.6,0.6c-0.6,0.1-1.1,0.2-1.8,0.3l-0.6-1.6
		c-0.4-1-0.9-1.7-1.5-2.2c-0.6-0.5-1.2-0.7-1.9-0.7c-1.3,0-2,0.5-2,1.5c0,0.4,0.2,0.8,0.6,1.1c0.4,0.4,1,0.7,1.6,1.1
		c0.7,0.3,1.4,0.7,2.2,1.1c0.8,0.4,1.6,0.8,2.4,1.3c0.8,0.5,1.5,1,2.2,1.6c0.7,0.6,1.2,1.3,1.6,2.1c0.4,0.8,0.6,1.8,0.6,2.7
		c0,2.3-0.9,4.1-2.8,5.4c-1.9,1.3-4.4,1.9-7.4,1.9c-1.3,0-2.6-0.2-3.9-0.6c-1.2-0.4-2.3-0.9-3.1-1.7
		C273.2,37.5,272.8,36.7,272.8,35.7"/>
	<path fill="#404041" d="M293.3,14L294,10l8.9-0.6l1.4,1.3v8.2l-0.4,2.4l0.4,0.1c1.2-1.3,2.2-2.2,3.1-2.8c0.9-0.6,2-0.9,3.2-0.9
		c2.5,0,4.6,0.9,6.1,2.8c1.5,1.9,2.3,4.4,2.3,7.4c0,2.4-0.6,4.6-1.9,6.5c-1.3,1.9-2.9,3.4-4.9,4.3c-2,1-4.1,1.5-6.4,1.5
		c-1.3,0-2.9-0.2-4.7-0.4c-1.8-0.3-3.2-0.7-4.3-1.3V16.3L293.3,14z M304.2,33.6c1,0.9,2,1.3,3,1.3c1,0,1.8-0.5,2.4-1.6
		c0.6-1.1,1-2.5,1-4.2c0-1.3-0.2-2.4-0.7-3.3c-0.5-0.9-1.2-1.4-2.1-1.4c-1,0-2.2,0.5-3.5,1.6V33.6z"/>
	<path fill="#404041" d="M320.4,22.7l0.8-4.3l8.6-0.5l1.3,1.3v9.5c0,1.5,0.1,2.6,0.4,3.2c0.3,0.6,0.8,0.9,1.5,0.9
		c1.1,0,2-0.4,2.9-1.2v-6.1l-3.1-1.8l0.8-5l8.5-1l1.3,1.3v12c0,1.2,0.2,2.1,0.7,2.6c0.4,0.5,1.3,1,2.6,1.4l0.7,0.2l-0.6,4
		c-2,0.9-3.9,1.4-5.8,1.4c-1.4,0-2.5-0.3-3.4-0.9c-0.9-0.6-1.3-1.5-1.3-2.7v-0.3l-0.3-0.1c-0.7,1.2-1.6,2.2-2.8,2.9
		c-1.2,0.7-2.4,1-3.6,1c-1.2,0-2.3-0.1-3.1-0.4c-0.8-0.3-1.5-0.7-2-1.3c-0.5-0.6-0.8-1.3-1-2.2c-0.2-0.9-0.3-1.9-0.3-3.2v-8.2
		L320.4,22.7z"/>
	<path fill="#404041" d="M349.7,39.6l0.5-3.8l3.5-1.6v-9.8l-3.3-1.8l0.6-4l8.6-0.7l0.9,0.9l-0.4,3.3l0.5,0.2c1.1-3.2,3-4.8,5.8-4.8
		c1.2,0,2.2,0.4,2.9,1.1c0.7,0.7,1.1,1.6,1.1,2.7c0,1.9-0.8,3.7-2.5,5.3c-1.3-0.6-2.4-0.9-3.4-0.9c-0.4,0-0.7,0.1-1,0.2
		c-0.3,0.1-0.6,0.2-0.8,0.4l-0.6,0.6l-0.4,0.6l-0.2,0.3l-0.5,0.9v5l5.7,1.5l-0.3,4.4H349.7z"/>
	<path fill="#404041" d="M372.1,43.2c0-0.7,0.3-1.4,1-2.2c0.7-0.7,1.6-1.2,2.7-1.5v-0.4c-0.8-0.4-1.3-0.8-1.7-1.4
		c-0.4-0.6-0.5-1.3-0.5-2.2c0-1,0.5-1.9,1.5-2.7c1-0.8,2-1.4,3.2-1.6l-0.1-0.4c-0.9-0.4-1.8-1.1-2.6-2.3c-0.8-1.2-1.3-2.4-1.3-3.6
		c0-2,0.8-3.8,2.5-5.3c1.7-1.5,3.8-2.3,6.5-2.3c2.6,0,4.8,0.5,6.6,1.5l5.6-0.8l0.7,0.8l-1.1,4.6l-0.8,0.1l-2.1-0.7l-0.1,0.1
		c0,0.4,0.1,0.8,0.1,1.2c0,1.6-0.4,3-1.2,4.2c-0.8,1.2-1.9,2-3.1,2.6c-1.3,0.6-2.7,0.9-4.3,0.9c-0.2,0-0.7-0.1-1.6-0.2
		c-0.4,0.4-0.6,0.8-0.6,1.2c0,0.8,0.8,1.2,2.3,1.2h3.2c2.7,0,4.7,0.5,6.1,1.4c1.3,0.9,2,2.4,2,4.4c0,1.1-0.3,2.2-0.9,3.2
		c-0.6,1.1-1.5,2-2.6,2.9c-1.1,0.9-2.5,1.6-4.3,2.1c-1.8,0.5-3.7,0.8-5.8,0.8c-0.7,0-1.5,0-2.2-0.1c-0.7-0.1-1.5-0.3-2.4-0.5
		c-0.9-0.3-1.6-0.6-2.3-1c-0.7-0.4-1.2-0.9-1.6-1.6C372.3,44.9,372.1,44.1,372.1,43.2 M378.7,41.6c0,2,1.5,3,4.5,3
		c2.8,0,4.3-0.8,4.3-2.5c0-0.8-0.3-1.5-0.9-1.9c-0.6-0.4-1.5-0.6-2.9-0.6h-4.7C378.8,40.3,378.7,41,378.7,41.6 M380.9,24.4
		c0,2.2,0.7,3.6,2.3,4.3l-0.1,0c1,0,1.7-0.3,2-0.8c0.3-0.5,0.5-1.6,0.5-3.3c0-0.2,0-0.4-0.1-0.8c-0.1-0.4-0.2-0.8-0.4-1.4
		c-0.2-0.5-0.5-1-0.9-1.4c-0.4-0.4-0.9-0.6-1.5-0.6c-0.5,0-1,0.3-1.3,0.9C381.1,21.9,380.9,23,380.9,24.4"/>
</g>
</svg>
